<svg xmlns="http://www.w3.org/2000/svg" width="33" height="36" fill="none" viewBox="0 0 33 36">
  <path fill="#fff" d="M25.5 9C24.5 8 22.5 7.5 20.5 7.5C17 7.5 14.5 9.5 14.5 12.5C14.5 14.5 15.5 16 17.5 16.5C18.5 16.8 19 17 19 17.5C19 18.5 18 19 16.5 19C15 19 13.5 18.5 12.5 17.5L11 20C12.5 21.5 15 22.5 17.5 22.5C22 22.5 24.5 20.5 24.5 17.5C24.5 15.5 23.5 14 21.5 13.5C20.5 13.2 20 13 20 12.5C20 11.5 21 11 22.5 11C24 11 25.5 11.5 26.5 12.5L28 9.5C26.5 8 24.5 7.5 22.5 7.5H20.5Z"/>
  <path fill="#fff" d="M14.5 28.5C15.5 29.5 17.5 30 19.5 30C23 30 25.5 28 25.5 25C25.5 23 24.5 21.5 22.5 21C21.5 20.7 21 20.5 21 20C21 19 22 18.5 23.5 18.5C25 18.5 26.5 19 27.5 20L29 17C27.5 15.5 25.5 14.5 23 14.5C18.5 14.5 16 16.5 16 19.5C16 21.5 17 23 19 23.5C20 23.8 20.5 24 20.5 24.5C20.5 25.5 19.5 26 18 26C16.5 26 15 25.5 14 24.5L12.5 28C14 29.5 16.5 30.5 19 30.5H20.5Z"/>
</svg>
